<?xml version="1.0" encoding="UTF-8" standalone="no"?>
<svg
   xmlns:dc="http://purl.org/dc/elements/1.1/"
   xmlns:cc="http://creativecommons.org/ns#"
   xmlns:rdf="http://www.w3.org/1999/02/22-rdf-syntax-ns#"
   xmlns:svg="http://www.w3.org/2000/svg"
   xmlns="http://www.w3.org/2000/svg"
   xmlns:sodipodi="http://sodipodi.sourceforge.net/DTD/sodipodi-0.dtd"
   xmlns:inkscape="http://www.inkscape.org/namespaces/inkscape"
   inkscape:version="1.0 (4035a4fb49, 2020-05-01)"
   sodipodi:docname="gscholar-button_inactive.svg"
   xml:space="preserve"
   style="enable-background:new 0 0 40 40;"
   viewBox="0 0 40 40"
   y="0px"
   x="0px"
   id="Layer_1"
   version="1.1"><metadata
   id="metadata857"><rdf:RDF><cc:Work
       rdf:about=""><dc:format>image/svg+xml</dc:format><dc:type
         rdf:resource="http://purl.org/dc/dcmitype/StillImage" /></cc:Work></rdf:RDF></metadata><defs
   id="defs855" /><sodipodi:namedview
   inkscape:current-layer="Layer_1"
   inkscape:window-maximized="1"
   inkscape:window-y="-8"
   inkscape:window-x="-8"
   inkscape:cy="31.125516"
   inkscape:cx="-5.9134453"
   inkscape:zoom="8.625"
   showgrid="false"
   id="namedview853"
   inkscape:window-height="1017"
   inkscape:window-width="1920"
   inkscape:pageshadow="2"
   inkscape:pageopacity="0"
   guidetolerance="10"
   gridtolerance="10"
   objecttolerance="10"
   borderopacity="1"
   bordercolor="#666666"
   pagecolor="#ffffff" />
<style
   id="style846"
   type="text/css">
	.st0{fill:#666766;}
	.st1{fill:#F4F4F4;}
</style>

<g
   id="g865"><g
     id="g860"><ellipse
       rx="20"
       ry="20"
       id="ellipse848"
       cy="20"
       cx="20"
       class="st0"
       transform="matrix(6.191442e-002 -0.9981 0.9981 6.191442e-002 -1.1999 38.7233)" /></g><path
     class="st1"
     d="M30.5,8.6c-0.1,0.1-0.2,0.2-0.4,0.3c-0.8,0.5-1,1.2-0.9,2.1c0,0.2,0.1,0.3,0.2,0.5c0.1,0.2,0.2,0.4,0.2,0.5  c0,2.6,0,5.1-0.1,7.7c0,0.6-0.3,0.8-0.8,0.8c-0.6,0-0.9-0.3-0.9-1c0-1.2,0-2.4,0-3.6c0-1.2,0.1-2.4,0.2-3.7c0-0.3,0.3-0.6,0.3-0.9  c0.1-0.4,0.1-0.7,0.1-1.1c0,0-0.1,0-0.1-0.1c-1.2,0.9-2.3,1.8-3.4,2.7c0.2,0.7,0.4,1.3,0.4,2c0.2,1.5-0.5,2.7-1.6,3.7  c-0.4,0.4-0.8,0.7-1.2,1.1c-0.5,0.5-0.5,1.2-0.1,1.7c0.6,0.6,1.2,1.2,1.9,1.8c1.3,1.1,1.8,2.5,1.7,4.1c-0.1,1.8-1.2,3-2.8,3.7  c-1.1,0.6-2.4,0.8-3.6,0.7c-1.8,0-3.6-0.3-5.2-1.3c-1.3-0.9-1.9-2.1-1.5-3.4c0.2-0.8,0.6-1.4,1.1-1.9c1.4-1.3,3-1.9,4.9-2  c0.5,0,1,0,1.6,0c-0.9-1-1.1-1.9-0.5-3.1c-1.5,0-2.8-0.2-3.9-1.2c-1.1-1-1.6-2.2-1.6-3.7c-0.8,0-1.7,0-2.5,0c-0.8,0-1.6,0-2.5-0.1  c0.1-0.1,0.2-0.2,0.4-0.3c2.4-2,4.8-4,7.3-6.1c0.1-0.1,0.2-0.2,0.3-0.2C21.8,8.4,26.1,8.5,30.5,8.6z M19.9,30.6  c1.1-0.1,2.1-0.2,3-0.6c1.6-0.8,2.3-3.6,0.4-4.9c-0.4-0.3-0.9-0.7-1.3-1c-0.1-0.1-0.3-0.2-0.4-0.2c-1.6-0.4-3.2-0.2-4.7,0.6  c-1.9,1.1-2.2,3.2-0.6,4.8C17.3,30.3,18.6,30.6,19.9,30.6z M16.9,14.7c0,0.1,0,0.2,0,0.4c0.2,1.6,0.8,2.9,2.2,3.8  c1.2,0.8,2.5,0.6,3.3-0.5c0.4-0.5,0.5-1.1,0.6-1.8c0.3-1.8-0.7-3.9-2.2-4.8c-1.2-0.7-2.6-0.5-3.3,0.6C17.1,13,16.9,13.8,16.9,14.7z"
     id="path850" /></g>
</svg>
